<svg viewBox="0 0 24 24" xmlns="http://www.w3.org/2000/svg">
    <path fill="#ffffff" d="m0.01234,7.58855l0,8.82291l5.02266,0l7.51892,6.17469l0.00447,-21.17229l-7.52003,6.17469l-5.02602,0l-0.00001,0z M17.19902,5.92744c-0.49378,-0.48876 -1.2866,-0.48876 -1.77787,0.00251c-0.49001,0.49127 -0.49001,1.2866 0.00251,1.77913l0,-0.00251c1.08431,1.08557 1.75274,2.57446 1.75274,4.2292c0,1.65348 -0.66717,3.13735 -1.75023,4.22292c-0.49504,0.48876 -0.49504,1.28409 -0.00251,1.77787c0.24501,0.24501 0.56666,0.36814 0.88831,0.36814c0.32291,0 0.64456,-0.12313 0.88956,-0.36814c1.53538,-1.53287 2.48777,-3.66254 2.48651,-6.00079c0.00126,-2.34327 -0.9549,-4.47547 -2.48902,-6.00833zm2.88355,-2.88229c-0.49378,-0.49127 -1.2866,-0.49127 -1.77536,0c-0.49253,0.49127 -0.49253,1.28786 0,1.77662c1.82185,1.82311 2.94511,4.33097 2.94511,7.11275c0,2.77926 -1.12326,5.28587 -2.9426,7.11024c-0.49253,0.49001 -0.49253,1.28535 0,1.77662c0.24501,0.24501 0.56666,0.36814 0.88956,0.36814c0.32165,0 0.6433,-0.12313 0.88831,-0.36814c2.27166,-2.27291 3.68014,-5.42157 3.67762,-8.88685c0.00126,-3.46779 -1.40722,-6.61897 -3.68265,-8.88937l0.00001,-0.00001z" />
</svg>